<svg id="Capa_1" data-name="Capa 1" xmlns="http://www.w3.org/2000/svg" viewBox="0 0 1200 675"><defs><style>.cls-1{fill:#144c7d;}.cls-2{fill:#2180bb;}.cls-3{fill:#134c7e;}</style></defs><title>Mesa de trabajo 1sigma</title><path class="cls-1" d="M229.11,287.4Q249,311,249,340.34q-.67,33.74-23.09,56.49T171.44,419.6H82.74q-23.61,0-27.66-12.82-2-5.71-2-17.53V202.07a96.42,96.42,0,0,1,.51-11.8,27,27,0,0,1,3.2-8.77q4.71-9.1,26.31-9.11h85q31,0,51.94,21.58,21.92,21.93,21.91,52.62A70.21,70.21,0,0,1,229.11,287.4ZM189.31,337q0-8.09-1.85-12.81a11.93,11.93,0,0,0-6.24-6.75q-6.75-2.69-18.89-2.7T144.12,310q-6.08-4.71-6.07-19.39t6.23-19.39q6.24-4.72,20.75-4.72,13.49,0,16.19-7.09,1-3.7,1-12.14t-5.56-11.8q-5.58-3.37-16.7-3.37H112.76V359.91h55.31Q189.31,359.91,189.31,337Z"/><path class="cls-1" d="M737.65,182.17a27,27,0,0,1,3.21,9.11,104.43,104.43,0,0,1,.5,11.8V390.26q0,23.26-12.81,27.32a54.7,54.7,0,0,1-16.19,2q-9.78,0-15.52-1.69a26.73,26.73,0,0,1-8.77-4,15.31,15.31,0,0,1-4.72-6.75q-1.68-5.73-1.68-17.53v-113q-8.43,10.47-24.63,33.22t-20.57,28.5l-6.06,7.93q-1.7,2.19-8.26,6.07a28.25,28.25,0,0,1-28,.33q-6.24-3.54-8.93-6.91l-2.7-3.71q-6.76-8.43-26.65-35.92T534.29,276.6V390.26a97.23,97.23,0,0,1-.51,11.64,24,24,0,0,1-3.21,8.59q-5.05,9.12-26.3,9.11-20.56,0-25.62-9.11a23.81,23.81,0,0,1-3.22-8.76,108.78,108.78,0,0,1-.5-12.14V202.41a100,100,0,0,1,.5-11.64,27,27,0,0,1,3.22-8.94q5-8.76,26.3-8.77a49.69,49.69,0,0,1,15.67,2.2c4.4,1.46,7.26,3,8.61,4.55l2,2,76.56,100.51q57.33-75.88,76.56-100.17,5.73-9.1,27.14-9.11T737.65,182.17Z"/><path class="cls-2" d="M824,331.07q0,14.34,9.45,22.26t20.07,7.92A34.94,34.94,0,0,0,873.4,355q9.27-6.22,15-6.23,10.13,0,24.63,17.87,7.74,9.8,7.76,17.54,0,12.82-18.56,23.94Q883,421.63,855,421.63q-31.35,0-60.36-22.6-13.85-10.78-22.59-28.84a89.58,89.58,0,0,1-8.77-39.79q0-21.76,8.77-39.46t22.59-28.5q28-22.26,59.69-22.26a88.67,88.67,0,0,1,25,3.54q12.13,3.54,17.87,6.91l5.4,3.38q6.07,4,9.45,6.4,8.76,6.76,8.77,15.35t-7.09,19.39q-12.13,18.56-23.27,18.55-6.4,0-18.21-7.42-6.08-5.73-17.37-5.73t-21.08,8.09Q824,316.74,824,331.07Z"/><path class="cls-2" d="M966,264.46q28.32-26.31,64.75-26.3t64.41,26.13q28,26.15,28,66.61,0,28-14.5,49.75t-35.24,32a95.5,95.5,0,0,1-43,10.29,91.85,91.85,0,0,1-43.17-11q-20.91-11-35.24-32.37t-14.33-48.4Q937.65,290.77,966,264.46Zm42.15,90.89q10.79,8.26,21.92,8.26t22.26-8.42q11.13-8.43,11.13-25T1053,305.61q-10.47-8.1-22.6-8.1t-22.6,8.43q-10.45,8.44-10.46,24.79T1008.13,355.35Z"/><path class="cls-1" d="M273.38,179.72a6.9,6.9,0,0,1,6.9-6.9h58c37.33,0,116.76,3.87,116.76,97.53,0,96.33-90.61,90.88-90.61,90.88v51.6S364.2,420,358,420H281.5c-9.38,0-8.12-8.9-8.12-8.9V257.84a6.9,6.9,0,0,1,6.92-6.9l57.6.15v-8.44a3.79,3.79,0,0,1,6-3l37.74,26.29a3.77,3.77,0,0,1,.06,6L344,299.27a3.78,3.78,0,0,1-6.09-3v-8l-34.7,0V390.18H337s0-41.33,0-57.91a7.26,7.26,0,0,1,7.2-7.24c34.25-.25,70.54-.34,70.54-57.76-1.9-52.93-40.47-54.61-71.55-54.61H280.28a6.9,6.9,0,0,1-6.9-6.9Z"/><path class="cls-1" d="M515.71,472.84a15.64,15.64,0,0,1,2-7.82,14.67,14.67,0,0,1,4.39-4.77H61.57A11.75,11.75,0,0,0,50,472.1v6.44a11.75,11.75,0,0,0,11.57,11.85H515.71Z"/><path class="cls-1" d="M547.5,461.15a14.65,14.65,0,0,1,5.51,5.54,15.63,15.63,0,0,1,2,7.84,16.52,16.52,0,0,1-1.85,7.84,14.06,14.06,0,0,1-5.1,5.51,14.12,14.12,0,0,1-13.21.66,13.72,13.72,0,0,1-4.71-3.71v15a2.74,2.74,0,0,1-.77,2,3,3,0,0,1-4.07,0,2.72,2.72,0,0,1-.8-2V474.53a15.44,15.44,0,0,1,2-7.84,14.94,14.94,0,0,1,5.48-5.54,15.11,15.11,0,0,1,7.73-2A15.43,15.43,0,0,1,547.5,461.15Zm-2.77,22.38a9.81,9.81,0,0,0,3.55-3.71,10.82,10.82,0,0,0,1.3-5.29,11,11,0,0,0-1.3-5.32,9.75,9.75,0,0,0-3.55-3.74,9.65,9.65,0,0,0-13.54,3.74,11.1,11.1,0,0,0-1.28,5.32,10.92,10.92,0,0,0,1.28,5.29,9.77,9.77,0,0,0,13.54,3.71Z"/><path class="cls-1" d="M582.86,459.91a2.57,2.57,0,0,1,1.66,2.21,2.41,2.41,0,0,1,0,.56,2.14,2.14,0,0,1-2.22,1.77,5.1,5.1,0,0,1-.83-.11,21.66,21.66,0,0,0-3.6-.39,10.41,10.41,0,0,0-6.42,1.83,5.82,5.82,0,0,0-2.44,4.93v16.17a2.84,2.84,0,0,1-.69,2.05,2.78,2.78,0,0,1-2.08.72,2.86,2.86,0,0,1-2.05-.69,2.76,2.76,0,0,1-.72-2.08V462.12a2.51,2.51,0,0,1,2.77-2.77,2.45,2.45,0,0,1,2.77,2.77v1.05a11.69,11.69,0,0,1,4.1-3,12.39,12.39,0,0,1,5.2-1.11A9.89,9.89,0,0,1,582.86,459.91Z"/><path class="cls-1" d="M593.94,487.91a14,14,0,0,1-5.43-5.46,17.26,17.26,0,0,1,0-15.9,13.88,13.88,0,0,1,5.43-5.45,15.85,15.85,0,0,1,7.92-2,15.61,15.61,0,0,1,7.84,2,14.19,14.19,0,0,1,5.42,5.45,17.14,17.14,0,0,1,0,15.9,14,14,0,0,1-5.4,5.46,16.92,16.92,0,0,1-15.81,0Zm13-4.35a9.17,9.17,0,0,0,3.48-3.69,11.25,11.25,0,0,0,1.25-5.34,11.37,11.37,0,0,0-1.25-5.37,9.12,9.12,0,0,0-3.48-3.72,10.4,10.4,0,0,0-10.14,0,9.35,9.35,0,0,0-3.52,3.72,11.15,11.15,0,0,0-1.27,5.37,11,11,0,0,0,1.27,5.34,9.4,9.4,0,0,0,3.52,3.69,10.33,10.33,0,0,0,10.14,0Z"/><path class="cls-1" d="M631.38,487.88a14.38,14.38,0,0,1-5.46-5.51,15.81,15.81,0,0,1-2-7.84,16.43,16.43,0,0,1,1.91-7.95,13.76,13.76,0,0,1,5.35-5.48,15.29,15.29,0,0,1,7.75-2,13.75,13.75,0,0,1,10.86,5,2.08,2.08,0,0,1,.55,1.43,2.42,2.42,0,0,1-1.22,2.05,2.17,2.17,0,0,1-1.27.39,2.77,2.77,0,0,1-2.16-1,8.92,8.92,0,0,0-3-2.18,9.56,9.56,0,0,0-3.74-.69,9,9,0,0,0-6.92,2.85,10.6,10.6,0,0,0-2.66,7.56,11.25,11.25,0,0,0,1.24,5.34,9.19,9.19,0,0,0,3.49,3.69,10,10,0,0,0,5.13,1.33,9.21,9.21,0,0,0,6.09-1.94,3.45,3.45,0,0,1,2-.78,2.38,2.38,0,0,1,1.44.5,2.58,2.58,0,0,1,1,2,2,2,0,0,1-.67,1.5,14.06,14.06,0,0,1-10,3.71A15.68,15.68,0,0,1,631.38,487.88Z"/><path class="cls-1" d="M685.27,475.77a2.5,2.5,0,0,1-1.83.7H662.39a9.79,9.79,0,0,0,3.52,6.25,10.86,10.86,0,0,0,7.12,2.39,10.66,10.66,0,0,0,3.46-.61,10.36,10.36,0,0,0,3-1.5,2.92,2.92,0,0,1,1.83-.61,2.36,2.36,0,0,1,1.66.56,2.4,2.4,0,0,1,1,1.88,2,2,0,0,1-.89,1.66,15.18,15.18,0,0,1-4.68,2.44,16.62,16.62,0,0,1-5.34.94,16.81,16.81,0,0,1-8.14-2,14.26,14.26,0,0,1-5.62-5.46,15.51,15.51,0,0,1-2-7.92,16.32,16.32,0,0,1,1.92-7.95,13.79,13.79,0,0,1,5.31-5.48,15.19,15.19,0,0,1,7.73-2,14,14,0,0,1,7.37,1.88,12.48,12.48,0,0,1,4.76,5.27A17.29,17.29,0,0,1,686,474,2.31,2.31,0,0,1,685.27,475.77Zm-19.63-9.66a10,10,0,0,0-3.19,5.93h18.44a9.77,9.77,0,0,0-2.77-5.93,8.09,8.09,0,0,0-5.92-2.22A9.53,9.53,0,0,0,665.64,466.11Z"/><path class="cls-1" d="M697.12,488.71a13.61,13.61,0,0,1-5.21-3,2.34,2.34,0,0,1-.72-1.72,2.59,2.59,0,0,1,1.11-2.16,3.4,3.4,0,0,1,1.94-.77,2.93,2.93,0,0,1,2.1,1,8.62,8.62,0,0,0,3.16,2,11.81,11.81,0,0,0,4.49.86,9.43,9.43,0,0,0,4.9-1.06,3.18,3.18,0,0,0,1.74-2.82,3.33,3.33,0,0,0-1.71-2.85,16.75,16.75,0,0,0-5.82-1.91q-10.64-2.06-10.63-8.76a6.83,6.83,0,0,1,1.6-4.59,9.79,9.79,0,0,1,4.21-2.83,16.36,16.36,0,0,1,5.54-.94,17.14,17.14,0,0,1,6.46,1.16,11.06,11.06,0,0,1,4.51,3.22,2.81,2.81,0,0,1,.72,1.77,2.18,2.18,0,0,1-.94,1.71,2.57,2.57,0,0,1-1.56.45,3.75,3.75,0,0,1-2.59-1.05,8.35,8.35,0,0,0-2.94-1.8,11.81,11.81,0,0,0-3.77-.53,9,9,0,0,0-4.18.86,2.63,2.63,0,0,0-1.63,2.41,3,3,0,0,0,.55,1.85,4.86,4.86,0,0,0,2.11,1.39,26.44,26.44,0,0,0,4.48,1.24c4,.82,6.88,1.94,8.56,3.38a7,7,0,0,1,2.52,5.6,8.08,8.08,0,0,1-1.39,4.62,9.15,9.15,0,0,1-4.07,3.27,15.91,15.91,0,0,1-6.45,1.19A21.47,21.47,0,0,1,697.12,488.71Z"/><path class="cls-1" d="M729.08,487.91a14,14,0,0,1-5.43-5.46,17.26,17.26,0,0,1,0-15.9,13.88,13.88,0,0,1,5.43-5.45,15.85,15.85,0,0,1,7.92-2,15.61,15.61,0,0,1,7.84,2,14.19,14.19,0,0,1,5.42,5.45,17.14,17.14,0,0,1,0,15.9,14,14,0,0,1-5.4,5.46,16.92,16.92,0,0,1-15.81,0Zm13-4.35a9.17,9.17,0,0,0,3.48-3.69,11.25,11.25,0,0,0,1.25-5.34,11.37,11.37,0,0,0-1.25-5.37,9.12,9.12,0,0,0-3.48-3.72,10.4,10.4,0,0,0-10.14,0,9.35,9.35,0,0,0-3.52,3.72,11.15,11.15,0,0,0-1.27,5.37,11,11,0,0,0,1.27,5.34,9.4,9.4,0,0,0,3.52,3.69,10.33,10.33,0,0,0,10.14,0Z"/><path class="cls-1" d="M764.58,488.71a13.56,13.56,0,0,1-5.2-3,2.3,2.3,0,0,1-.72-1.72,2.58,2.58,0,0,1,1.1-2.16,3.42,3.42,0,0,1,1.94-.77,3,3,0,0,1,2.11,1,8.57,8.57,0,0,0,3.15,2,11.84,11.84,0,0,0,4.49.86,9.43,9.43,0,0,0,4.9-1.06A3.19,3.19,0,0,0,778.1,481a3.34,3.34,0,0,0-1.72-2.85,16.6,16.6,0,0,0-5.82-1.91q-10.62-2.06-10.63-8.76a6.84,6.84,0,0,1,1.61-4.59,9.75,9.75,0,0,1,4.2-2.83,16.42,16.42,0,0,1,5.55-.94,17.12,17.12,0,0,1,6.45,1.16,11,11,0,0,1,4.51,3.22,2.81,2.81,0,0,1,.72,1.77A2.18,2.18,0,0,1,782,467a2.54,2.54,0,0,1-1.55.45,3.77,3.77,0,0,1-2.6-1.05,8.35,8.35,0,0,0-2.94-1.8,11.79,11.79,0,0,0-3.76-.53,9,9,0,0,0-4.19.86,2.63,2.63,0,0,0-1.63,2.41,3,3,0,0,0,.55,1.85,4.86,4.86,0,0,0,2.11,1.39,26.71,26.71,0,0,0,4.48,1.24c4,.82,6.88,1.94,8.56,3.38a7,7,0,0,1,2.52,5.6,8.15,8.15,0,0,1-1.38,4.62,9.2,9.2,0,0,1-4.07,3.27,16,16,0,0,1-6.46,1.19A21.47,21.47,0,0,1,764.58,488.71Z"/><path class="cls-1" d="M846.58,462.23c2,2.11,3,5,3,8.81v15.84a2.77,2.77,0,0,1-.77,2,2.85,2.85,0,0,1-4.88-2V471a7.1,7.1,0,0,0-1.68-5.12,6,6,0,0,0-4.52-1.75,6.2,6.2,0,0,0-4.74,2,7.18,7.18,0,0,0-1.85,5.09v15.62a2.81,2.81,0,0,1-.77,2,3,3,0,0,1-4.08,0,2.75,2.75,0,0,1-.8-2V471a7.06,7.06,0,0,0-1.69-5.12,6,6,0,0,0-4.51-1.75,6.25,6.25,0,0,0-4.79,2,7.14,7.14,0,0,0-1.86,5.09v15.62a2.81,2.81,0,0,1-.77,2,2.85,2.85,0,0,1-4.88-2V462.23a2.71,2.71,0,0,1,.81-2.05,2.82,2.82,0,0,1,4.84,1.94,10.09,10.09,0,0,1,3.44-2.24,11.32,11.32,0,0,1,4.31-.81,11,11,0,0,1,5.07,1.14,9.73,9.73,0,0,1,3.68,3.24,11.5,11.5,0,0,1,4.16-3.21,12.88,12.88,0,0,1,5.54-1.17A10.19,10.19,0,0,1,846.58,462.23Z"/><path class="cls-1" d="M880.37,461.15a14.94,14.94,0,0,1,5.48,5.54,15.44,15.44,0,0,1,2,7.84v12.35a2.83,2.83,0,1,1-5.65,0v-2.05a14,14,0,0,1-17.92,3.05,14.11,14.11,0,0,1-5.09-5.51,16.53,16.53,0,0,1-1.86-7.84,15.63,15.63,0,0,1,2-7.84,14.58,14.58,0,0,1,5.51-5.54,15.4,15.4,0,0,1,7.78-2A15.14,15.14,0,0,1,880.37,461.15Zm-2.72,22.38a9.59,9.59,0,0,0,3.52-3.71,10.92,10.92,0,0,0,1.27-5.29,11.09,11.09,0,0,0-1.27-5.32,9.78,9.78,0,0,0-13.54-3.74,9.75,9.75,0,0,0-3.55,3.74,11,11,0,0,0-1.3,5.32,10.82,10.82,0,0,0,1.3,5.29,9.81,9.81,0,0,0,3.55,3.71,9.91,9.91,0,0,0,10,0Zm-6.84-29.74a2.79,2.79,0,0,1-.77-2,2.68,2.68,0,0,1,.66-1.88l5.43-5.43a2.73,2.73,0,0,1,2-.83,2.68,2.68,0,0,1,2,.83,2.84,2.84,0,0,1,.81,2.05,2.52,2.52,0,0,1-.78,1.94l-5.37,5.37a2.62,2.62,0,0,1-1.94.78A2.74,2.74,0,0,1,870.81,453.79Z"/><path class="cls-1" d="M900.22,488.71a13.61,13.61,0,0,1-5.21-3,2.34,2.34,0,0,1-.72-1.72,2.59,2.59,0,0,1,1.11-2.16,3.4,3.4,0,0,1,1.94-.77,2.93,2.93,0,0,1,2.1,1,8.71,8.71,0,0,0,3.16,2,11.81,11.81,0,0,0,4.49.86,9.43,9.43,0,0,0,4.9-1.06,3.19,3.19,0,0,0,1.75-2.82,3.34,3.34,0,0,0-1.72-2.85,16.75,16.75,0,0,0-5.82-1.91q-10.63-2.06-10.63-8.76a6.83,6.83,0,0,1,1.6-4.59,9.79,9.79,0,0,1,4.21-2.83,16.36,16.36,0,0,1,5.54-.94,17.14,17.14,0,0,1,6.46,1.16,11.06,11.06,0,0,1,4.51,3.22,2.81,2.81,0,0,1,.72,1.77,2.18,2.18,0,0,1-.94,1.71,2.57,2.57,0,0,1-1.56.45,3.75,3.75,0,0,1-2.59-1.05,8.35,8.35,0,0,0-2.94-1.8,11.81,11.81,0,0,0-3.77-.53,9,9,0,0,0-4.18.86,2.63,2.63,0,0,0-1.63,2.41,3,3,0,0,0,.55,1.85,4.86,4.86,0,0,0,2.11,1.39,26.44,26.44,0,0,0,4.48,1.24c4,.82,6.88,1.94,8.56,3.38a7,7,0,0,1,2.52,5.6,8.08,8.08,0,0,1-1.39,4.62,9.15,9.15,0,0,1-4.07,3.27,15.91,15.91,0,0,1-6.45,1.19A21.47,21.47,0,0,1,900.22,488.71Z"/><path class="cls-1" d="M950.68,453.54A7.7,7.7,0,0,0,948.8,459v1.5h5.65a2.68,2.68,0,0,1,1.88.66,2.32,2.32,0,0,1,.72,1.78,2.17,2.17,0,0,1-.72,1.66,2.68,2.68,0,0,1-1.88.66H948.8v21.6a2.75,2.75,0,0,1-.78,2.05,2.9,2.9,0,0,1-2.16.78,2.65,2.65,0,0,1-1.91-.78,2.69,2.69,0,0,1-.8-2.05v-21.6h-2.38a2.69,2.69,0,0,1-1.89-.66,2.17,2.17,0,0,1-.72-1.66,2.32,2.32,0,0,1,.72-1.78,2.69,2.69,0,0,1,1.89-.66h2.38v-.94a14.51,14.51,0,0,1,1.58-6.9,11.26,11.26,0,0,1,4.43-4.59,12.85,12.85,0,0,1,6.51-1.64,2.92,2.92,0,0,1,2,.72,2.49,2.49,0,0,1,0,3.66,2.92,2.92,0,0,1-2,.72A6.45,6.45,0,0,0,950.68,453.54Z"/><path class="cls-1" d="M983.28,461.15a14.91,14.91,0,0,1,5.47,5.54,15.35,15.35,0,0,1,2,7.84v12.35a2.83,2.83,0,1,1-5.65,0v-2.05a14,14,0,0,1-17.92,3.05,14.06,14.06,0,0,1-5.1-5.51,16.64,16.64,0,0,1-1.85-7.84,15.73,15.73,0,0,1,2-7.84,14.68,14.68,0,0,1,5.52-5.54,15.38,15.38,0,0,1,7.78-2A15.17,15.17,0,0,1,983.28,461.15Zm-2.72,22.38a9.66,9.66,0,0,0,3.52-3.71,11,11,0,0,0,1.27-5.29,11.21,11.21,0,0,0-1.27-5.32,9.46,9.46,0,0,0-8.53-5.09,9.5,9.5,0,0,0-5,1.35,9.75,9.75,0,0,0-3.55,3.74,10.89,10.89,0,0,0-1.3,5.32,10.72,10.72,0,0,0,1.3,5.29,9.81,9.81,0,0,0,3.55,3.71,9.91,9.91,0,0,0,10,0Zm-6.84-29.74a2.8,2.8,0,0,1-.78-2,2.64,2.64,0,0,1,.67-1.88l5.43-5.43a2.73,2.73,0,0,1,2-.83,2.7,2.7,0,0,1,2,.83,2.83,2.83,0,0,1,.8,2.05,2.51,2.51,0,0,1-.77,1.94l-5.37,5.37a2.62,2.62,0,0,1-1.94.78A2.74,2.74,0,0,1,973.72,453.79Z"/><path class="cls-1" d="M1005.07,487.88a14.24,14.24,0,0,1-5.46-5.51,15.82,15.82,0,0,1-2-7.84,16.32,16.32,0,0,1,1.92-7.95,13.74,13.74,0,0,1,5.34-5.48,15.32,15.32,0,0,1,7.75-2,13.75,13.75,0,0,1,10.86,5,2,2,0,0,1,.55,1.43,2.44,2.44,0,0,1-1.21,2.05,2.2,2.2,0,0,1-1.28.39,2.77,2.77,0,0,1-2.16-1,8.83,8.83,0,0,0-3-2.18,9.52,9.52,0,0,0-3.74-.69,9,9,0,0,0-6.92,2.85,10.65,10.65,0,0,0-2.66,7.56,11.25,11.25,0,0,0,1.25,5.34,9.19,9.19,0,0,0,3.49,3.69,9.89,9.89,0,0,0,5.12,1.33A9.21,9.21,0,0,0,1019,483a3.47,3.47,0,0,1,2.05-.78,2.35,2.35,0,0,1,1.44.5,2.58,2.58,0,0,1,1,2,2.07,2.07,0,0,1-.66,1.5,14.09,14.09,0,0,1-10,3.71A15.62,15.62,0,0,1,1005.07,487.88Z"/><path class="cls-1" d="M1033.29,453.34a3.61,3.61,0,1,1,2.57,1.08A3.52,3.52,0,0,1,1033.29,453.34Zm.55,35.51a2.74,2.74,0,0,1-.8-2V462.18a2.7,2.7,0,0,1,.8-2.05,2.82,2.82,0,0,1,4.85,2.05v24.64a2.8,2.8,0,0,1-.78,2,3,3,0,0,1-4.07,0Z"/><path class="cls-1" d="M1052.11,488.35a8.52,8.52,0,0,1-3-3.66,12.84,12.84,0,0,1-1.05-5.29V449.16a2.77,2.77,0,1,1,5.54,0V479.4a6.71,6.71,0,0,0,.77,3.38,2.29,2.29,0,0,0,2,1.33h1.38a2.29,2.29,0,0,1,1.8.78,2.87,2.87,0,0,1,.7,2,2.37,2.37,0,0,1-1.06,2,4.42,4.42,0,0,1-2.71.78h-.11A7.54,7.54,0,0,1,1052.11,488.35Z"/><path class="cls-1" d="M1090.64,475.77a2.5,2.5,0,0,1-1.83.7h-21a9.74,9.74,0,0,0,3.52,6.25,10.86,10.86,0,0,0,7.12,2.39,10.71,10.71,0,0,0,3.46-.61,10.36,10.36,0,0,0,3-1.5,2.92,2.92,0,0,1,1.83-.61,2.36,2.36,0,0,1,1.66.56,2.4,2.4,0,0,1,1,1.88,2,2,0,0,1-.89,1.66,15.18,15.18,0,0,1-4.68,2.44,16.94,16.94,0,0,1-13.48-1,14.36,14.36,0,0,1-5.63-5.46,15.6,15.6,0,0,1-2-7.92,16.43,16.43,0,0,1,1.91-7.95,13.89,13.89,0,0,1,5.32-5.48,15.18,15.18,0,0,1,7.72-2,14,14,0,0,1,7.38,1.88,12.48,12.48,0,0,1,4.76,5.27,17.29,17.29,0,0,1,1.66,7.75A2.31,2.31,0,0,1,1090.64,475.77ZM1071,466.11a9.94,9.94,0,0,0-3.19,5.93h18.44a9.77,9.77,0,0,0-2.77-5.93,8.1,8.1,0,0,0-5.93-2.22A9.52,9.52,0,0,0,1071,466.11Z"/><path class="cls-1" d="M1102.49,488.71a13.61,13.61,0,0,1-5.21-3,2.34,2.34,0,0,1-.72-1.72,2.59,2.59,0,0,1,1.11-2.16,3.4,3.4,0,0,1,1.94-.77,2.93,2.93,0,0,1,2.1,1,8.53,8.53,0,0,0,3.16,2,11.81,11.81,0,0,0,4.49.86,9.46,9.46,0,0,0,4.9-1.06A3.18,3.18,0,0,0,1116,481a3.32,3.32,0,0,0-1.72-2.85,16.61,16.61,0,0,0-5.81-1.91q-10.63-2.06-10.63-8.76a6.83,6.83,0,0,1,1.6-4.59,9.79,9.79,0,0,1,4.21-2.83,16.36,16.36,0,0,1,5.54-.94,17.14,17.14,0,0,1,6.46,1.16,11.06,11.06,0,0,1,4.51,3.22,2.81,2.81,0,0,1,.72,1.77,2.18,2.18,0,0,1-.94,1.71,2.57,2.57,0,0,1-1.56.45,3.79,3.79,0,0,1-2.6-1.05,8.23,8.23,0,0,0-2.93-1.8,11.85,11.85,0,0,0-3.77-.53,9,9,0,0,0-4.18.86,2.64,2.64,0,0,0-1.64,2.41,3,3,0,0,0,.56,1.85,4.88,4.88,0,0,0,2.1,1.39,26.88,26.88,0,0,0,4.49,1.24c4,.82,6.87,1.94,8.56,3.38a7,7,0,0,1,2.52,5.6,8.15,8.15,0,0,1-1.39,4.62,9.15,9.15,0,0,1-4.07,3.27,15.91,15.91,0,0,1-6.45,1.19A21.47,21.47,0,0,1,1102.49,488.71Z"/><path class="cls-3" d="M1148.08,225.39a13.22,13.22,0,0,0-5.38-5.31,14.39,14.39,0,0,0-14.15,0,13.31,13.31,0,0,0-5.39,5.31,14.4,14.4,0,0,0,0,14.37,13.46,13.46,0,0,0,5.33,5.33,14.49,14.49,0,0,0,14.31,0,13.38,13.38,0,0,0,5.32-5.33,14.53,14.53,0,0,0,1.9-7.15A14.71,14.71,0,0,0,1148.08,225.39Zm-2,13.17a11.22,11.22,0,0,1-4.43,4.45,11.94,11.94,0,0,1-11.94,0,11.21,11.21,0,0,1-4.45-4.45,12,12,0,0,1-1.6-5.95,12.25,12.25,0,0,1,1.62-6,11.15,11.15,0,0,1,4.5-4.43,11.9,11.9,0,0,1,11.78,0,11.09,11.09,0,0,1,4.5,4.43,12.06,12.06,0,0,1,0,12Z"/><path class="cls-3" d="M1138.14,234.46a3.85,3.85,0,0,0-1.32-.81,4.91,4.91,0,0,0,3.22-1.42,4.15,4.15,0,0,0,1.21-2.95,4,4,0,0,0-.72-2.27,3.88,3.88,0,0,0-2-1.51,13.31,13.31,0,0,0-3.95-.42h-5.32v15.47h2.5V234h1.47a3.18,3.18,0,0,1,2,.54,12.37,12.37,0,0,1,2.61,3.6l1.38,2.43h3l-1.88-3A17.56,17.56,0,0,0,1138.14,234.46Zm-3.29-2.61h-3v-4.68h2.84a7.75,7.75,0,0,1,2.51.28,2.24,2.24,0,0,1,1,.8,2.08,2.08,0,0,1,.38,1.23,2.11,2.11,0,0,1-.78,1.72A4.91,4.91,0,0,1,1134.85,231.85Z"/></svg>